<?xml version="1.0" encoding="iso-8859-1"?>
<!-- Generator: Adobe Illustrator 19.0.0, SVG Export Plug-In . SVG Version: 6.00 Build 0)  -->
<svg version="1.1" id="Layer_1" xmlns="http://www.w3.org/2000/svg" xmlns:xlink="http://www.w3.org/1999/xlink" x="0px" y="0px"
	 viewBox="0 0 511.999 511.999" style="enable-background:new 0 0 511.999 511.999;" xml:space="preserve">
<g>
	<g>
		<path d="M493.153,342.002c-21.417-26.567-55.83-37.548-88.124-28.96c-0.376-1.501-1.065-2.949-2.1-4.233l-29.201-36.214
			l75.167-93.251c20.987-26.042,16.88-64.311-9.157-85.307c-2.276-1.835-5.187-2.688-8.093-2.379
			c-2.906,0.312-5.57,1.767-7.404,4.041L327.69,215.475L231.134,95.698c-1.835-2.275-4.498-3.729-7.405-4.041
			c-2.901-0.311-5.817,0.543-8.093,2.379c-12.572,10.139-20.284,24.7-22.131,40.138c-1.319-0.183-2.658-0.295-4.022-0.295h-27.077
			V90.216c0-6.085-4.934-11.02-11.02-11.02h-31.232V42.168c0-6.085-4.934-11.02-11.02-11.02c-6.086,0-11.02,4.935-11.02,11.02
			v37.028H66.882c-6.086,0-11.02,4.935-11.02,11.02v43.662H28.785C12.914,133.879,0,146.787,0,162.653v289.349
			c0,15.866,12.912,28.774,28.785,28.774h160.698c5.022,0,9.887-1.298,14.173-3.726c8.27,2.542,16.71,3.802,25.072,3.802
			c25.21,0,49.666-11.243,66.258-31.831c20.913-25.948,24.464-61.913,10.071-91.238l22.631-28.075l22.607,28.049
			c-14.629,29.531-11.006,65.085,10.095,91.267c16.829,20.87,41.545,31.715,66.469,31.715c18.787,0,37.693-6.165,53.421-18.846
			C516.884,432.392,522.659,378.61,493.153,342.002z M221.908,119.371l91.628,113.663l-17.732,21.997l-72.164-89.517
			c-2.864-3.553-5.051-7.515-6.5-11.776C213.157,142.027,215.125,129.266,221.908,119.371z M77.903,101.237h62.463v32.642H77.903
			V101.237z M28.785,458.736c-3.719,0-6.744-3.022-6.744-6.734V162.653c0-3.713,3.025-6.733,6.744-6.733h38.097h84.504h38.097
			c2.923,0,5.571,1.946,6.438,4.732c0.196,0.628,0.295,1.303,0.295,2.001v128.695c0,6.085,4.934,11.02,11.02,11.02
			s11.02-4.935,11.02-11.02v-97.396l63.393,78.638l-32.391,40.182c-2.733-0.683-5.504-1.231-8.302-1.639
			c-12.274-1.783-25.029-0.842-36.876,2.718c-14.966,4.472-28.247,12.899-38.7,24.474V226.252c0-6.085-4.934-11.02-11.02-11.02
			H63.907c-6.086,0-11.02,4.935-11.02,11.02v162.153c0,6.085,4.934,11.02,11.02,11.02h79.583
			c1.025,22.039,10.516,43.588,27.921,59.311H28.785z M143.341,237.272v140.112H74.927V237.272H143.341z M277.826,435.191
			c-17.377,21.56-46.378,29.3-72.161,19.261c-6.023-2.349-11.654-5.618-16.738-9.719c-27.14-21.875-31.421-61.754-9.545-88.897
			c8.062-9.998,18.785-17.214,31.025-20.871c5.902-1.773,12.105-2.671,18.297-2.671c3.041,0,6.08,0.216,9.08,0.652
			c11.129,1.622,21.677,6.236,30.499,13.344c4.743,3.824,8.896,8.283,12.343,13.251
			C296.447,382.405,295.298,413.513,277.826,435.191z M319.24,305.073c-0.046,0.055-0.089,0.111-0.134,0.166l-26.95,33.433
			c-3.078-3.433-6.427-6.63-10.041-9.544c-3.616-2.914-7.45-5.511-11.454-7.784l33.583-41.664c0.06-0.07,0.116-0.143,0.173-0.215
			l31.765-39.409c0.011-0.013,0.022-0.028,0.034-0.042l0.055-0.068l97.209-120.588c9.428,13.711,9.219,32.552-1.742,46.153
			l-80.612,100.005c-0.05,0.06-0.097,0.12-0.146,0.181L319.24,305.073z M341.844,312.148l17.729-21.993l25.148,31.189
			c-4.003,2.276-7.838,4.871-11.461,7.789c-3.617,2.916-6.968,6.106-10.042,9.535L341.844,312.148z M466.449,444.735
			c-11.664,9.405-25.678,13.976-39.61,13.974c-18.479-0.001-36.81-8.045-49.287-23.517c-17.234-21.384-18.752-51.196-3.777-74.184
			v0.001c3.622-5.559,8.104-10.51,13.317-14.714c5.022-4.046,10.568-7.28,16.483-9.616c25.856-10.199,54.959-2.502,72.419,19.157
			C497.872,382.98,493.591,422.859,466.449,444.735z"/>
	</g>
</g>
<g>
	<g>
		<path d="M456.881,371.234c-13.386-16.587-37.778-19.202-54.366-5.827c-8.044,6.479-13.081,15.705-14.184,25.977
			c-1.102,10.27,1.86,20.352,8.339,28.391l0.001,0.001c6.484,8.043,15.709,13.079,25.977,14.183c1.407,0.152,2.81,0.226,4.205,0.226
			c8.79,0,17.251-2.973,24.188-8.566C467.643,412.246,470.266,387.854,456.881,371.234z M437.212,408.457
			c-3.458,2.787-7.795,4.064-12.208,3.587c-4.416-0.475-8.383-2.641-11.174-6.101c-2.785-3.456-4.059-7.79-3.585-12.206
			c0.474-4.417,2.638-8.381,6.099-11.168c7.137-5.754,17.627-4.629,23.38,2.499C445.478,392.213,444.353,402.705,437.212,408.457z"
			/>
	</g>
</g>
<g>
	<g>
		<path d="M267.052,391.381c-1.105-10.271-6.144-19.495-14.184-25.972c-16.592-13.376-40.983-10.766-54.379,5.833
			c-13.379,16.611-10.755,41.003,5.842,54.371c6.942,5.597,15.404,8.57,24.194,8.57c1.395,0,2.799-0.074,4.205-0.226
			c10.265-1.103,19.489-6.139,25.974-14.179C265.191,411.741,268.156,401.657,267.052,391.381z M241.552,405.938
			c-0.001,0.001-0.002,0.002-0.003,0.004c-2.79,3.46-6.759,5.627-11.175,6.102c-4.419,0.478-8.751-0.8-12.214-3.591
			c-7.137-5.748-8.262-16.238-2.513-23.376c3.283-4.068,8.103-6.182,12.964-6.182c3.666,0,7.356,1.203,10.426,3.679
			c3.458,2.785,5.624,6.751,6.099,11.167C245.612,398.153,244.338,402.487,241.552,405.938z"/>
	</g>
</g>
<g>
</g>
<g>
</g>
<g>
</g>
<g>
</g>
<g>
</g>
<g>
</g>
<g>
</g>
<g>
</g>
<g>
</g>
<g>
</g>
<g>
</g>
<g>
</g>
<g>
</g>
<g>
</g>
<g>
</g>
</svg>
