<?xml version="1.0" encoding="iso-8859-1"?>
<!-- Generator: Adobe Illustrator 16.0.0, SVG Export Plug-In . SVG Version: 6.00 Build 0)  -->
<!DOCTYPE svg PUBLIC "-//W3C//DTD SVG 1.1//EN" "http://www.w3.org/Graphics/SVG/1.1/DTD/svg11.dtd">
<svg version="1.1" id="Capa_1" xmlns="http://www.w3.org/2000/svg" xmlns:xlink="http://www.w3.org/1999/xlink" x="0px" y="0px"
	 width="400.003px" height="400.004px" viewBox="0 0 400.003 400.004" style="enable-background:new 0 0 400.003 400.004;"
	 xml:space="preserve">
<g>
	<g>
		<path d="M332.81,221.452c49.915-49.917,84.312-140.176,58.254-122.509c-84.316,57.175-149.692,82.579-188.74,98.738
			c16.156-39.049,41.562-104.425,98.734-188.744c17.667-26.055-72.592,8.338-122.507,58.254
			c-39.104,39.104-42.679,102.128-31.014,138.979c-4.985,2.771-10.564,5.695-16.567,8.554c2.331-16.114-1.287-32.902-10.741-46.733
			c-20.493-29.985-61.561-37.707-91.548-17.214c-29.985,20.495-37.706,61.563-17.215,91.551
			c12.925,18.906,34.025,28.95,55.369,28.663c0.74,0.072,35.002,1.243,87.493-25.315c-26.56,52.492-25.388,86.753-25.317,87.493
			c-0.287,21.344,9.759,42.446,28.666,55.369c29.985,20.493,71.055,12.771,91.549-17.214c20.49-29.986,12.771-71.056-17.215-91.549
			c-13.83-9.453-30.621-13.071-46.733-10.741c2.859-6.002,5.781-11.579,8.554-16.565
			C230.682,264.132,293.707,260.557,332.81,221.452z M89.854,219.161c-2.076,3.564-4.879,6.572-8.332,8.933
			c-12.644,8.641-29.961,5.386-38.604-7.261c-8.642-12.644-5.387-29.962,7.26-38.604c12.643-8.643,29.961-5.385,38.603,7.258
			C94.796,198.292,95.215,209.938,89.854,219.161z M210.517,311.223c12.646,8.643,15.9,25.96,7.259,38.604
			c-8.645,12.645-25.96,15.899-38.605,7.259c-12.644-8.643-15.899-25.96-7.257-38.604c2.359-3.452,5.364-6.255,8.931-8.33
			C190.064,304.787,201.712,305.206,210.517,311.223z M185.521,235.695c-5.857,5.857-15.354,5.857-21.212,0.001
			c-5.858-5.857-5.858-15.355,0-21.215c5.857-5.856,15.354-5.856,21.212,0.001C191.377,220.341,191.377,229.838,185.521,235.695z"/>
	</g>
</g>
<g>
</g>
<g>
</g>
<g>
</g>
<g>
</g>
<g>
</g>
<g>
</g>
<g>
</g>
<g>
</g>
<g>
</g>
<g>
</g>
<g>
</g>
<g>
</g>
<g>
</g>
<g>
</g>
<g>
</g>
</svg>
