<?xml version="1.0" encoding="iso-8859-1"?>
<!-- Generator: Adobe Illustrator 18.1.1, SVG Export Plug-In . SVG Version: 6.00 Build 0)  -->
<svg version="1.1" id="Capa_1" xmlns="http://www.w3.org/2000/svg" xmlns:xlink="http://www.w3.org/1999/xlink" x="0px" y="0px"
	 viewBox="0 0 14.16 14.16" style="enable-background:new 0 0 14.16 14.16;" xml:space="preserve">
<g>
	<g>
		<path style="fill:#030104;" d="M13.828,5.065L9.402,5.31L8.019,6.346L6.997,6.401L4.671,7.034C4.547,6.589,4.244,6.233,3.84,6.002
			C3.329,5.71,2.659,5.62,1.987,5.801C0.778,6.13,0.024,7.22,0.3,8.236c0.123,0.45,0.428,0.809,0.834,1.042
			c0.51,0.292,1.181,0.383,1.853,0.201C3.283,9.398,3.55,9.272,3.782,9.113C3.783,9.112,3.785,9.11,3.788,9.11
			c0.018-0.014,0.038-0.027,0.057-0.044c1.4-1.037,2.367-1.315,2.913-1.376c-0.06,0.547-0.339,1.513-1.376,2.914
			c-0.015,0.019-0.029,0.038-0.043,0.057c0,0.003-0.001,0.004-0.002,0.006c-0.16,0.231-0.286,0.5-0.367,0.796
			c-0.182,0.671-0.091,1.342,0.201,1.853c0.233,0.406,0.591,0.712,1.042,0.834c0.016,0.004,0.031,0.007,0.047,0.01l0.958-0.057
			c0.65-0.23,1.209-0.833,1.429-1.641c0.183-0.672,0.092-1.342-0.2-1.854c-0.231-0.402-0.587-0.706-1.032-0.83l0.633-2.325
			c0.494-0.165,2.063-0.579,2.063-0.579s2.901-1.239,3.479-1.396C14.144,5.143,13.828,5.065,13.828,5.065z M2.72,8.49
			C2.339,8.594,1.936,8.556,1.643,8.389C1.515,8.315,1.348,8.183,1.289,7.966c-0.125-0.461,0.318-1,0.969-1.177
			C2.644,6.684,3.037,6.72,3.334,6.89c0.128,0.073,0.295,0.206,0.354,0.423C3.814,7.774,3.37,8.313,2.72,8.49z M7.56,11.116
			c0.17,0.297,0.205,0.689,0.102,1.076c-0.178,0.649-0.717,1.094-1.178,0.968c-0.216-0.059-0.348-0.225-0.423-0.354
			c-0.167-0.291-0.204-0.694-0.101-1.075c0.177-0.65,0.716-1.094,1.177-0.969C7.353,10.821,7.486,10.988,7.56,11.116z"/>
		<path style="fill:#030104;" d="M9.07,4.576l0.272-4.453c0,0-0.123-0.431-0.328,0.32c-0.11,0.406-1.457,3.641-1.457,3.641
			S7.155,5.47,6.997,5.943l1.022-0.054L9.07,4.576z"/>
	</g>
</g>
<g>
</g>
<g>
</g>
<g>
</g>
<g>
</g>
<g>
</g>
<g>
</g>
<g>
</g>
<g>
</g>
<g>
</g>
<g>
</g>
<g>
</g>
<g>
</g>
<g>
</g>
<g>
</g>
<g>
</g>
</svg>
