<?xml version="1.0" encoding="iso-8859-1"?>
<!-- Generator: Adobe Illustrator 19.0.0, SVG Export Plug-In . SVG Version: 6.00 Build 0)  -->
<svg version="1.1" id="Layer_1" xmlns="http://www.w3.org/2000/svg" xmlns:xlink="http://www.w3.org/1999/xlink" x="0px" y="0px"
	 viewBox="0 0 511.995 511.995" style="enable-background:new 0 0 511.995 511.995;" xml:space="preserve">
<circle style="fill:#006775;" cx="255.997" cy="255.997" r="255.997"/>
<path style="fill:#055661;" d="M511.789,270.163c-6.976,130.22-111.194,234.437-241.414,241.625L157.067,398.48l108.235-109.715
	l-20.717-21.351l22.831-22.408l20.506,20.928L396.79,155.586l114.788,114.788L511.789,270.163z"/>
<path style="fill:#FFD630;" d="M216.258,225.77l-50.946,2.537C164.888,228.307,195.541,190.678,216.258,225.77z"/>
<g>
	<path style="fill:#F5BE18;" d="M229.787,214.355l-30.23-82.233C210.127,142.27,277.139,171.865,229.787,214.355z"/>
	<path style="fill:#F5BE18;" d="M216.258,225.77v-0.211l-0.846-1.269l-49.255,2.96l-0.846,1.057
		C164.466,228.307,197.866,260.862,216.258,225.77z"/>
</g>
<path style="fill:#FFD630;" d="M229.787,214.355l1.48-1.269l-28.75-78.005l-2.96-2.96
	C198.923,133.813,169.75,207.379,229.787,214.355z"/>
<g>
	<path style="fill:#00CC96;" d="M115.422,326.606l80.119-78.639c8.456-8.244,21.986-8.033,30.23,0.211l2.748,2.96l31.921,32.555
		l2.748,2.96c8.244,8.456,8.033,21.986-0.211,30.23l-80.119,78.639c-8.456,8.244-21.986,8.033-30.23-0.211l-37.417-38.263
		c-8.244-8.456-8.033-21.986,0.211-30.23v-0.212H115.422z M214.566,264.879l-2.748-2.96c-0.634-0.634-1.691-0.634-2.325,0
		l-80.119,78.639c-0.634,0.634-0.634,1.691,0,2.325l37.417,38.263c0.634,0.634,1.691,0.634,2.325,0l80.119-78.639
		c0.634-0.634,0.634-1.691,0-2.325l-2.748-2.96l-31.921-32.555L214.566,264.879L214.566,264.879z"/>
	<path style="fill:#00CC96;" d="M249.024,195.541l80.119-78.639c8.456-8.244,21.986-8.033,30.23,0.211l37.417,38.263
		c8.244,8.456,8.033,21.986-0.211,30.23l-80.119,78.639c-8.456,8.244-21.986,8.033-30.23-0.211l-2.748-2.96l-31.71-32.555
		l-0.211,0.211l-2.748-2.96C240.568,217.315,240.779,203.785,249.024,195.541z M297.433,247.333l2.748,2.96
		c0.634,0.634,1.691,0.634,2.325,0l80.119-78.639c0.634-0.634,0.634-1.691,0-2.325l-37.417-38.263c-0.634-0.634-1.691-0.634-2.325,0
		l-80.119,78.639c-0.634,0.634-0.634,1.691,0,2.325l2.748,2.96l31.921,32.555v-0.212H297.433z"/>
</g>
<path style="fill:#FFD630;" d="M208.647,285.172l74.411-72.932c4.862-4.651,12.684-4.651,17.335,0.211l0,0
	c4.651,4.862,4.651,12.684-0.211,17.335l-74.411,72.932c-4.862,4.651-12.684,4.651-17.335-0.211l0,0
	C203.785,297.645,203.785,289.823,208.647,285.172z"/>
<g>
	<path style="fill:#07B587;" d="M253.252,276.083l7.187,7.399l2.748,2.96c8.244,8.456,8.033,21.986-0.211,30.23l-80.119,78.639
		c-8.456,8.244-21.986,8.033-30.23-0.211l-18.815-19.026l14.164-13.953l18.815,19.026c0.634,0.634,1.691,0.634,2.325,0
		l80.119-78.639c0.634-0.634,0.634-1.691,0-2.325l-2.748-2.96l-7.187-7.399l14.164-13.953L253.252,276.083z"/>
	<path style="fill:#07B587;" d="M378.187,136.139l18.815,19.026c8.244,8.456,8.033,21.986-0.211,30.23l-80.119,78.639
		c-8.456,8.244-21.986,8.033-30.23-0.211l-2.748-2.96l-7.187-7.399l14.164-13.74l7.187,7.399l2.748,2.96
		c0.634,0.634,1.691,0.634,2.325,0l80.119-78.639c0.634-0.634,0.634-1.691,0-2.325l-18.815-19.026l14.164-13.953H378.187z"/>
</g>
<path style="fill:#F5BE18;" d="M300.604,212.453L300.604,212.453c4.651,4.862,4.651,12.684-0.211,17.335l-74.411,72.932
	c-4.862,4.651-12.684,4.651-17.335-0.211l0,0l91.957-90.266V212.453z"/>
<g>
</g>
<g>
</g>
<g>
</g>
<g>
</g>
<g>
</g>
<g>
</g>
<g>
</g>
<g>
</g>
<g>
</g>
<g>
</g>
<g>
</g>
<g>
</g>
<g>
</g>
<g>
</g>
<g>
</g>
</svg>
