<?xml version="1.0" encoding="iso-8859-1"?>
<!-- Generator: Adobe Illustrator 19.0.0, SVG Export Plug-In . SVG Version: 6.00 Build 0)  -->
<svg version="1.1" id="Layer_1" xmlns="http://www.w3.org/2000/svg" xmlns:xlink="http://www.w3.org/1999/xlink" x="0px" y="0px"
	 viewBox="0 0 512 512" style="enable-background:new 0 0 512 512;" xml:space="preserve">
<g>
	<g>
		<path d="M416,121.5c-24.813,0-45-20.187-45-45v-36H141v36c0,24.813-20.187,45-45,45H0v26.049
			c0.011,3.269,0.615,80.965,31.533,159.921C73.554,414.779,151.173,471.5,256,471.5s182.446-56.721,224.467-164.031
			C511.385,228.513,511.989,150.817,512,147.5v-26H416z M421,161.5c8.271,0,15,6.729,15,15s-6.729,15-15,15s-15-6.729-15-15
			S412.729,161.5,421,161.5z M411,236.5c0,8.271-6.729,15-15,15s-15-6.729-15-15s6.729-15,15-15S411,228.229,411,236.5z M171,76.5
			v-6h170v6c0,31.43,19.443,58.389,46.925,69.527C380.528,154.049,376,164.754,376,176.5c0,6.412,1.357,12.509,3.784,18.035
			C362.963,201.057,351,217.403,351,236.5c0,2.655,0.244,5.252,0.688,7.782C330.834,248.195,315,266.528,315,288.5
			c0,1.017,0.046,2.022,0.113,3.022c-18.714,0.365-34.657,12.203-41.078,28.762c-5.525-2.427-11.623-3.784-18.035-3.784
			c-6.412,0-12.509,1.357-18.035,3.784c-6.414-16.541-22.329-28.37-41.016-28.76c0.03-0.672,0.051-1.345,0.051-2.024
			c0-22.033-15.922-40.406-36.861-44.249c0.561-2.832,0.861-5.757,0.861-8.751c0-19.097-11.963-35.443-28.784-41.965
			c2.427-5.526,3.784-11.623,3.784-18.035c0-11.746-4.528-22.451-11.925-30.473C151.557,134.889,171,107.93,171,76.5z M375,288.5
			c0,8.271-6.729,15-15,15s-15-6.729-15-15s6.729-15,15-15S375,280.229,375,288.5z M331,336.5c0,8.271-6.729,15-15,15
			s-15-6.729-15-15s6.729-15,15-15S331,328.229,331,336.5z M271,361.5c0,8.271-6.729,15-15,15s-15-6.729-15-15s6.729-15,15-15
			S271,353.229,271,361.5z M211,336.5c0,8.271-6.729,15-15,15s-15-6.729-15-15s6.729-15,15-15S211,328.229,211,336.5z M167,289.5
			c0,8.271-6.729,15-15,15s-15-6.729-15-15s6.729-15,15-15S167,281.229,167,289.5z M131,236.5c0,8.271-6.729,15-15,15
			s-15-6.729-15-15s6.729-15,15-15S131,228.229,131,236.5z M91,161.5c8.271,0,15,6.729,15,15s-6.729,15-15,15s-15-6.729-15-15
			S82.729,161.5,91,161.5z M452.533,296.531C414.864,392.725,348.741,441.5,256,441.5c-92.504,0-158.534-48.538-196.256-144.264
			C34.51,233.199,30.675,168.042,30.1,151.5h23.504c-4.799,7.156-7.604,15.756-7.604,25c0,19.097,11.963,35.443,28.784,41.965
			C72.357,223.991,71,230.088,71,236.5c0,22.033,15.922,40.406,36.861,44.249C107.3,283.581,107,286.506,107,289.5
			c0,24.495,19.676,44.467,44.051,44.976c-0.03,0.672-0.051,1.345-0.051,2.024c0,24.813,20.187,45,45,45
			c6.412,0,12.509-1.357,18.035-3.784C220.557,394.537,236.903,406.5,256,406.5s35.443-11.963,41.965-28.784
			c5.525,2.427,11.623,3.784,18.035,3.784c24.813,0,45-20.187,45-45c0-1.017-0.046-2.022-0.113-3.022
			C385.291,333.001,405,313.016,405,288.5c0-2.655-0.244-5.252-0.688-7.782C425.166,276.805,441,258.472,441,236.5
			c0-6.412-1.357-12.509-3.784-18.035C454.037,211.943,466,195.597,466,176.5c0-9.244-2.805-17.844-7.604-25h23.508
			C481.343,168.04,477.577,232.574,452.533,296.531z"/>
	</g>
</g>
<g>
</g>
<g>
</g>
<g>
</g>
<g>
</g>
<g>
</g>
<g>
</g>
<g>
</g>
<g>
</g>
<g>
</g>
<g>
</g>
<g>
</g>
<g>
</g>
<g>
</g>
<g>
</g>
<g>
</g>
</svg>
