<?xml version="1.0" encoding="iso-8859-1"?>
<!-- Generator: Adobe Illustrator 19.0.0, SVG Export Plug-In . SVG Version: 6.00 Build 0)  -->
<svg version="1.1" id="Capa_1" xmlns="http://www.w3.org/2000/svg" xmlns:xlink="http://www.w3.org/1999/xlink" x="0px" y="0px"
	 viewBox="0 0 512 512" style="enable-background:new 0 0 512 512;" xml:space="preserve">
<path style="fill:#EFEFEF;" d="M377.909,104.703c-22.537-16.092-39.532-31.582-39.532-48.537h-0.01
	c0-25.478-36.882-46.128-82.377-46.128c-45.485,0-82.367,20.65-82.367,46.128c0,16.955-16.995,32.445-39.532,48.537
	C89.669,136.415,23.715,170.507,23.715,222.959c0,66.998,149.907,282.257,232.285,278.964
	c82.377-3.293,232.285-211.966,232.285-278.964C488.284,170.507,422.33,136.415,377.909,104.703z"/>
<g>
	<path id="SVGCleanerId_0" style="fill:#8CE0FF;" d="M286.206,340.14c0,21.222-13.522,38.438-30.206,38.438
		s-30.206-17.216-30.206-38.438c0-21.232,30.206-52.854,30.206-52.854S286.206,318.908,286.206,340.14z"/>
</g>
<g>
	<path id="SVGCleanerId_0_1_" style="fill:#8CE0FF;" d="M286.206,340.14c0,21.222-13.522,38.438-30.206,38.438
		s-30.206-17.216-30.206-38.438c0-21.232,30.206-52.854,30.206-52.854S286.206,318.908,286.206,340.14z"/>
</g>
<g>
	<path id="SVGCleanerId_0_2_" style="fill:#8CE0FF;" d="M286.206,340.14c0,21.222-13.522,38.438-30.206,38.438
		s-30.206-17.216-30.206-38.438c0-21.232,30.206-52.854,30.206-52.854S286.206,318.908,286.206,340.14z"/>
</g>
<path d="M255.989,89.706c26.329,0,52.983-10.014,52.983-29.152c0-5.544-4.495-10.039-10.039-10.039
	c-5.463,0-9.907,4.365-10.036,9.797c-1.31,2.754-12.624,9.317-32.909,9.317c-20.279,0-31.59-6.563-32.9-9.317
	c-0.128-5.433-4.573-9.797-10.036-9.797c-5.544,0-10.039,4.494-10.039,10.039C203.015,79.692,229.665,89.706,255.989,89.706z"/>
<path d="M155.944,456.821C194.067,493.451,227.066,512,254.087,512c0.775,0,1.548-0.015,2.314-0.045
	c56.77-2.27,126.981-84.278,154.533-119.431c43.498-55.499,87.389-129.454,87.389-169.564c0-49.337-48.869-82.084-91.984-110.975
	c-7.993-5.356-15.542-10.415-22.596-15.45c-16.448-11.744-35.327-26.946-35.327-40.366c0-0.108-0.013-0.215-0.016-0.322
	C348.122,24.503,307.634,0,255.989,0c-51.817,0-92.406,24.671-92.406,56.166c0,13.422-18.88,28.622-35.326,40.366
	c-7.053,5.035-14.603,10.095-22.596,15.451c-43.116,28.891-91.984,61.637-91.984,110.975
	C13.676,271.997,84.146,387.836,155.944,456.821z M183.661,56.166c0-17.07,29.704-36.089,72.329-36.089
	c42.63,0,72.339,19.019,72.339,36.089c0,0.156,0.016,0.307,0.023,0.461c0.269,20.746,18.556,37.803,39.387,53.105
	c-2.14,44.578-32.153,86.889-57.488,114.954c-21.86,24.217-43.998,42.208-54.246,50.077
	c-23.153-17.842-108.119-88.39-111.741-165.032C165.246,94.316,183.661,77.122,183.661,56.166z M255.979,302.502
	c9.145,11.233,20.188,27.587,20.188,37.638c0,15.394-9.236,28.399-20.168,28.399c-10.932,0-20.168-13.005-20.168-28.399
	C235.832,330.271,246.339,314.269,255.979,302.502z M33.754,222.959c0-38.623,44.14-68.201,83.084-94.296
	c2.899-1.942,5.722-3.84,8.51-5.722c5.18,37.221,26.048,76.168,62.261,116.051c21.186,23.333,42.175,40.827,53.673,49.799
	c-9.84,11.827-25.525,33.48-25.525,51.351c0,26.73,18.054,48.477,40.245,48.477s40.245-21.747,40.245-48.477
	c0-17.88-15.701-39.546-25.54-51.369c26.82-20.979,104.861-88.041,115.928-165.845c2.795,1.887,5.624,3.789,8.53,5.736
	c38.944,26.097,83.084,55.673,83.084,94.297c0,29.63-34.954,95.733-83.113,157.179c-52.991,67.61-106.457,110.432-139.533,111.754
	c-21.167,0.848-51.61-16.752-85.744-49.548c-32.624-31.346-66.987-74.912-94.282-119.528
	C49.387,280.013,33.754,242.683,33.754,222.959z"/>
<path d="M362.867,367.602c1.837,1.441,4.019,2.138,6.186,2.138c2.978,0,5.928-1.32,7.907-3.847
	c21.338-27.224,40.208-55.592,54.569-82.038c2.646-4.873,0.841-10.967-4.031-13.612c-4.873-2.647-10.967-0.841-13.613,4.031
	c-13.836,25.479-32.069,52.878-52.726,79.234C357.739,357.872,358.504,364.182,362.867,367.602z"/>
<path d="M435.022,255.652c12.919,0,12.94-20.077,0-20.077C422.104,235.574,422.082,255.652,435.022,255.652z"/>
<g>
</g>
<g>
</g>
<g>
</g>
<g>
</g>
<g>
</g>
<g>
</g>
<g>
</g>
<g>
</g>
<g>
</g>
<g>
</g>
<g>
</g>
<g>
</g>
<g>
</g>
<g>
</g>
<g>
</g>
</svg>
