<?xml version="1.0" encoding="iso-8859-1"?>
<!-- Generator: Adobe Illustrator 19.0.0, SVG Export Plug-In . SVG Version: 6.00 Build 0)  -->
<svg version="1.1" id="Layer_1" xmlns="http://www.w3.org/2000/svg" xmlns:xlink="http://www.w3.org/1999/xlink" x="0px" y="0px"
	 viewBox="0 0 512 512" style="enable-background:new 0 0 512 512;" xml:space="preserve">
<path style="fill:#582129;" d="M433.231,14.066v278.505c0,97.726-79.505,177.231-177.231,177.231v16.879
	c107.033,0,194.11-87.077,194.11-194.11V14.066H433.231z"/>
<g>
	<path style="fill:#840C7F;" d="M78.769,292.571V14.066H61.89v278.505c0,107.033,87.077,194.11,194.11,194.11v-16.879
		C158.274,469.802,78.769,390.297,78.769,292.571z"/>
	<path style="fill:#840C7F;" d="M289.758,478.242c0-18.645-15.114-33.758-33.758-33.758l-11.253,33.758L256,512
		C274.645,512,289.758,496.886,289.758,478.242z"/>
</g>
<path style="fill:#D23ACB;" d="M222.242,478.242C222.242,496.886,237.355,512,256,512v-67.516
	C237.355,444.484,222.242,459.597,222.242,478.242z"/>
<path style="fill:#08A37B;" d="M382.593,453.372c0-18.645-15.114-33.758-33.758-33.758l-11.253,33.758l11.253,33.758
	C367.48,487.13,382.593,472.017,382.593,453.372z"/>
<path style="fill:#12F8BC;" d="M315.077,453.372c0,18.645,15.114,33.758,33.758,33.758v-67.516
	C330.19,419.614,315.077,434.729,315.077,453.372z"/>
<path style="fill:#D0A842;" d="M450.553,385.407c0-18.645-15.114-33.758-33.758-33.758l-11.253,33.758l11.253,33.758
	C435.44,419.165,450.553,404.051,450.553,385.407z"/>
<path style="fill:#FFD875;" d="M383.037,385.407c0,18.645,15.114,33.758,33.758,33.758v-67.516
	C398.151,351.648,383.037,366.762,383.037,385.407z"/>
<path style="fill:#D0A842;" d="M104.088,97.524c0-18.645-15.114-33.758-33.758-33.758L59.077,97.524l11.253,33.758
	C88.974,131.282,104.088,116.168,104.088,97.524z"/>
<path style="fill:#FFD875;" d="M36.571,97.524c0,18.645,15.114,33.758,33.758,33.758V63.766
	C51.685,63.766,36.571,78.88,36.571,97.524z"/>
<path style="fill:#08A37B;" d="M104.088,195.047c0-18.645-15.114-33.758-33.758-33.758l-11.253,33.758l11.253,33.758
	C88.974,228.805,104.088,213.692,104.088,195.047z"/>
<path style="fill:#12F8BC;" d="M36.571,195.047c0,18.645,15.114,33.758,33.758,33.758v-67.516
	C51.685,161.289,36.571,176.404,36.571,195.047z"/>
<path style="fill:#840C7F;" d="M104.088,292.571c0-18.645-15.114-33.758-33.758-33.758l-11.253,33.758L70.33,326.33
	C88.974,326.33,104.088,311.216,104.088,292.571z"/>
<path style="fill:#D23ACB;" d="M36.571,292.571c0,18.645,15.114,33.758,33.758,33.758v-67.516
	C51.685,258.813,36.571,273.927,36.571,292.571z"/>
<path style="fill:#D0A842;" d="M128.958,385.407c0-18.645-15.114-33.758-33.758-33.758l-11.253,33.758l11.253,33.758
	C113.843,419.165,128.958,404.051,128.958,385.407z"/>
<path style="fill:#FFD875;" d="M61.441,385.407c0,18.645,15.114,33.758,33.758,33.758v-67.516
	C76.555,351.648,61.441,366.762,61.441,385.407z"/>
<path style="fill:#08A37B;" d="M196.917,453.372c0-18.645-15.114-33.758-33.758-33.758l-11.253,33.758l11.253,33.758
	C181.804,487.13,196.917,472.017,196.917,453.372z"/>
<path style="fill:#12F8BC;" d="M129.401,453.372c0,18.645,15.114,33.758,33.758,33.758v-67.516
	C144.515,419.614,129.401,434.729,129.401,453.372z"/>
<circle style="fill:#F95FF2;" cx="256" cy="368.37" r="21.845"/>
<circle style="fill:#E7C05C;" cx="298.198" cy="357.061" r="21.845"/>
<circle style="fill:#D23ACB;" cx="329.087" cy="326.172" r="21.845"/>
<circle style="fill:#FFD875;" cx="171.604" cy="21.845" r="21.845"/>
<circle style="fill:#F95FF2;" cx="171.604" cy="65.536" r="21.845"/>
<circle style="fill:#FFD875;" cx="171.604" cy="109.219" r="21.845"/>
<circle style="fill:#F95FF2;" cx="171.604" cy="152.914" r="21.845"/>
<circle style="fill:#FFD875;" cx="171.604" cy="196.597" r="21.845"/>
<circle style="fill:#F95FF2;" cx="171.604" cy="240.291" r="21.845"/>
<circle style="fill:#E7C05C;" cx="340.396" cy="21.845" r="21.845"/>
<circle style="fill:#D23ACB;" cx="340.396" cy="65.536" r="21.845"/>
<circle style="fill:#E7C05C;" cx="340.396" cy="109.219" r="21.845"/>
<circle style="fill:#D23ACB;" cx="340.396" cy="152.914" r="21.845"/>
<circle style="fill:#E7C05C;" cx="340.396" cy="196.597" r="21.845"/>
<circle style="fill:#D23ACB;" cx="340.396" cy="240.291" r="21.845"/>
<circle style="fill:#FFD875;" cx="171.604" cy="283.974" r="21.845"/>
<circle style="fill:#F95FF2;" cx="182.913" cy="326.172" r="21.845"/>
<circle style="fill:#FFD875;" cx="213.802" cy="357.061" r="21.845"/>
<circle style="fill:#E7C05C;" cx="340.396" cy="283.974" r="21.845"/>
<path style="fill:#840C7F;" d="M104.088,0H70.33L59.077,16.879L70.33,33.758C88.974,33.758,104.088,18.645,104.088,0z"/>
<path style="fill:#D23ACB;" d="M36.571,0c0,18.645,15.114,33.758,33.758,33.758V0H36.571z"/>
<path style="fill:#840C7F;" d="M475.429,0H441.67l-11.253,16.879l11.253,16.879C460.315,33.758,475.429,18.645,475.429,0z"/>
<path style="fill:#D23ACB;" d="M407.912,0c0,18.645,15.114,33.758,33.758,33.758V0H407.912z"/>
<path style="fill:#D0A842;" d="M475.429,97.524c0-18.645-15.114-33.758-33.758-33.758l-11.253,33.758l11.253,33.758
	C460.315,131.282,475.429,116.168,475.429,97.524z"/>
<path style="fill:#FFD875;" d="M407.912,97.524c0,18.645,15.114,33.758,33.758,33.758V63.766
	C423.026,63.766,407.912,78.88,407.912,97.524z"/>
<path style="fill:#08A37B;" d="M475.429,195.047c0-18.645-15.114-33.758-33.758-33.758l-11.253,33.758l11.253,33.758
	C460.315,228.805,475.429,213.692,475.429,195.047z"/>
<path style="fill:#12F8BC;" d="M407.912,195.047c0,18.645,15.114,33.758,33.758,33.758v-67.516
	C423.026,161.289,407.912,176.404,407.912,195.047z"/>
<path style="fill:#840C7F;" d="M475.429,292.571c0-18.645-15.114-33.758-33.758-33.758l-11.253,33.758l11.253,33.758
	C460.315,326.33,475.429,311.216,475.429,292.571z"/>
<path style="fill:#D23ACB;" d="M407.912,292.571c0,18.645,15.114,33.758,33.758,33.758v-67.516
	C423.026,258.813,407.912,273.927,407.912,292.571z"/>
<g>
</g>
<g>
</g>
<g>
</g>
<g>
</g>
<g>
</g>
<g>
</g>
<g>
</g>
<g>
</g>
<g>
</g>
<g>
</g>
<g>
</g>
<g>
</g>
<g>
</g>
<g>
</g>
<g>
</g>
</svg>
