<?xml version="1.0" encoding="iso-8859-1"?>
<!-- Generator: Adobe Illustrator 16.0.0, SVG Export Plug-In . SVG Version: 6.00 Build 0)  -->
<!DOCTYPE svg PUBLIC "-//W3C//DTD SVG 1.1//EN" "http://www.w3.org/Graphics/SVG/1.1/DTD/svg11.dtd">
<svg version="1.1" id="Capa_1" xmlns="http://www.w3.org/2000/svg" xmlns:xlink="http://www.w3.org/1999/xlink" x="0px" y="0px"
	 width="483.679px" height="483.679px" viewBox="0 0 483.679 483.679" style="enable-background:new 0 0 483.679 483.679;"
	 xml:space="preserve">
<g>
	<g>
		<path d="M252.99,0.12c-10.756-1.18-20.492,6.504-21.67,17.26c-0.076,0.549-0.076,1.108-0.156,1.649
			c-0.076-0.471-0.234-0.944-0.391-1.415c-3.849-10.127-15.152-15.306-25.28-11.537c-10.203,3.761-15.307,15.148-11.538,25.277
			c0.156,0.395,0.314,0.785,0.547,1.18c-0.232-0.167-0.391-0.403-0.547-0.629c-7.226-8.089-19.626-8.871-27.713-1.737
			c-8.165,7.229-8.951,19.626-1.725,27.715c0.156,0.232,0.391,0.391,0.547,0.625c-0.156-0.154-0.312-0.235-0.391-0.315
			c-8.951-6.121-21.197-3.845-27.319,5.182c-6.125,8.951-3.769,21.117,5.18,27.243c0.022,0.024,0.048,0.03,0.072,0.046
			c-9.946-4.332-21.44,0.054-25.902,10c-4.388,9.878-0.006,21.394,9.856,25.882c-10.411-2.901-21.167,3.127-24.141,13.451
			c-2.983,10.438,2.981,21.273,13.347,24.345c-10.68-1.737-20.65,5.572-22.375,16.24c-1.727,10.607,5.494,20.646,16.092,22.452
			c-10.756-0.479-19.859,7.851-20.488,18.606c0.076,0,0.076,0,0.076,0c-0.547,10.756,7.694,20.017,18.45,20.568
			c-10.756,0.629-18.998,9.894-18.45,20.651c0.553,10.756,9.736,19.075,20.492,18.605c-10.598,1.796-17.819,11.851-16.096,22.438
			c1.807,10.756,11.858,17.977,22.532,16.254c-10.441,2.981-16.404,13.89-13.347,24.333c2.979,10.335,13.819,16.274,24.148,13.369
			c-9.866,4.492-14.17,16.085-9.782,25.976c4.478,9.891,16.096,14.274,25.986,9.811c0.08,0,0.08,0,0.156-0.093
			c-0.076,0.093-0.156,0.173-0.314,0.24c-8.868,6.124-11.146,18.29-5.025,27.239c6.125,8.96,18.374,11.236,27.321,5.037
			c0.156-0.084,0.236-0.168,0.395-0.24c-0.159,0.164-0.395,0.393-0.549,0.553c-7.145,8.167-6.282,20.57,1.881,27.699
			c8.165,7.146,20.57,6.296,27.633-1.795c0.234-0.236,0.393-0.481,0.629-0.706c-0.236,0.394-0.395,0.782-0.551,1.259
			c-3.689,10.119,1.571,21.42,11.776,25.106c10.127,3.703,21.434-1.555,25.123-11.682c0.156-0.484,0.314-0.945,0.471-1.427
			c0,0.554,0.076,1.019,0.076,1.571c1.258,9.982,9.736,17.271,19.47,17.271c0.785,0,1.651-0.076,2.433-0.168
			c10.756-1.334,18.446-11.145,17.111-21.9c-0.076-0.537-0.152-1.022-0.304-1.559c0.228,0.393,0.38,0.705,0.625,1.021
			c5.73,9.261,17.816,12.09,27.002,6.355c9.261-5.723,12.09-17.816,6.363-26.994c-0.16-0.316-0.396-0.553-0.553-0.865
			c0.156,0.16,0.309,0.312,0.469,0.389c8.163,7.146,20.57,6.203,27.716-1.964c7.064-8.163,6.199-20.565-2.04-27.703
			c-0.076-0.084-0.24-0.164-0.324-0.232c0.084,0,0.084,0.076,0.164,0.076c9.497,5.262,21.428,1.812,26.693-7.687
			c5.258-9.51,1.799-21.428-7.69-26.617c0-0.08-0.084-0.08-0.16-0.156l0.076,0.076c10.203,3.691,21.428-1.57,25.122-11.773
			c3.688-10.203-1.486-21.436-11.697-25.123c0,0-0.076,0-0.076-0.076c10.592,2.353,21.035-4.239,23.472-14.844
			c2.356-10.604-4.324-21.043-14.916-23.391c10.756,1.098,20.406-6.753,21.512-17.509c1.179-10.664-6.52-20.237-17.195-21.496
			c10.756-0.168,19.388-8.872,19.388-19.63c0-0.165,0-0.238,0-0.391c0-0.168,0-0.315,0-0.403c0-10.832-8.788-19.539-19.553-19.626
			c10.765-1.168,18.455-10.832,17.28-21.588c-1.102-10.756-10.76-18.519-21.432-17.429c10.516-2.43,17.031-12.872,14.68-23.471
			c-2.353-10.52-12.872-17.184-23.392-14.757v-0.082c10.199-3.687,15.381-14.994,11.693-25.119
			c-3.767-10.207-14.987-15.391-25.198-11.698c0,0,0.076,0,0.152-0.078c9.429-5.262,12.804-17.272,7.542-26.682
			c-5.258-9.423-17.196-12.884-26.693-7.624c-0.076,0.076-0.152,0.164-0.312,0.164c0.16-0.088,0.312-0.164,0.465-0.314
			c8.175-7.145,8.956-19.55,1.811-27.713c-7.068-8.166-19.472-9.029-27.631-1.884c-0.16,0.166-0.32,0.314-0.553,0.481
			c0.232-0.315,0.393-0.553,0.629-0.864c5.65-9.265,2.669-21.354-6.516-26.996c-9.262-5.67-21.36-2.765-27.003,6.488
			c-0.244,0.403-0.396,0.717-0.549,1.032c0.076-0.479,0.152-1.032,0.229-1.495C271.517,11.11,263.818,1.366,252.99,0.12z
			 M277.167,49.338c7.686,4.711,17.348,3.457,23.636-2.43c-4.953,7.221-4.633,17.184,1.41,24.019
			c6.276,7.221,16.635,8.716,24.569,4.082c-7.145,5.977-9.269,16.33-4.641,24.728c4.802,8.56,14.996,12.091,23.953,8.875
			c-8.404,4.555-12.403,14.677-9.033,23.942c3.459,9.341,13.272,14.531,22.694,12.403c-9.109,3.298-14.519,13.034-12.327,22.766
			c2.192,9.736,11.301,16.172,21.035,15.152c-9.574,2.278-16.09,11.305-15.072,21.275c1.106,9.977,9.582,17.437,19.396,17.506
			c-9.738,1.101-17.356,9.422-17.356,19.548c0,0.227,0,0.467,0,0.706c0,10.041,7.542,18.296,17.28,19.462
			c-9.814,0.168-18.138,7.534-19.244,17.585c-1.01,9.966,5.659,18.999,15.232,21.199c-9.811-1.022-18.995,5.406-21.195,15.216
			c-2.115,9.738,3.374,19.404,12.479,22.702c-9.413-2.056-19.228,3.126-22.598,12.479c-3.383,9.261,0.621,19.388,9.021,24.021
			c-8.944-3.299-19.155,0.312-23.94,8.868c-4.633,8.403-2.44,18.698,4.704,24.661c-8.002-4.552-18.289-2.98-24.569,4.24
			c-5.971,6.909-6.279,16.799-1.258,24.021c-6.356-5.887-15.938-6.985-23.628-2.276c-7.222,4.477-10.523,12.796-8.868,20.646
			c-3.771-6.908-11.47-11.225-19.707-10.207c-8.085,1.022-14.366,6.757-16.486,14.131c-0.314-7.683-5.178-14.76-12.872-17.573
			c-2.276-0.797-4.476-1.178-6.754-1.178c-5.887,0-11.538,2.745-15.304,7.297c3.372-7.614,1.567-16.867-5.025-22.609
			c-6.989-6.124-17.192-6.424-24.415-1.162c6.203-6.608,7.223-16.815,1.883-24.59c-5.494-8.003-15.779-10.664-24.337-6.736
			c7.851-5.258,10.993-15.549,6.987-24.417c-4.082-9.018-14.052-13.425-23.313-10.756c8.791-3.928,13.581-13.895,10.832-23.384
			c-2.825-9.658-12.327-15.465-21.982-13.905c9.421-2.67,15.467-12.091,13.896-21.981c-1.649-9.966-10.438-16.959-20.251-16.482
			c9.732-1.646,16.797-10.363,16.25-20.329c-0.473-10.127-8.556-17.984-18.45-18.611c9.895-0.553,17.901-8.48,18.45-18.526
			c0.471-10.127-6.674-18.763-16.33-20.412c9.812,0.471,18.606-6.517,20.173-16.495v0.076c1.649-9.888-4.472-19.312-13.813-21.979
			c9.574,1.491,19.077-4.396,21.822-13.964c2.747-9.588-2.04-19.47-10.834-23.396c9.185,2.669,19.235-1.797,23.237-10.836
			c4.005-8.946,0.863-19.153-7.063-24.413c8.556,3.925,18.919,1.176,24.337-6.743c5.333-7.851,4.316-18.142-1.964-24.66
			c7.221,5.184,17.426,4.945,24.414-1.256c6.594-5.799,8.321-15.148,4.869-22.758c5.182,6.36,14.052,9.021,22.137,6.045
			c7.692-2.901,12.483-10.039,12.718-17.739c2.196,7.297,8.556,13.028,16.645,13.97c8.239,0.944,15.854-3.38,19.548-10.291
			C266.647,36.691,270.029,44.945,277.167,49.338z"/>
	</g>
</g>
<g>
</g>
<g>
</g>
<g>
</g>
<g>
</g>
<g>
</g>
<g>
</g>
<g>
</g>
<g>
</g>
<g>
</g>
<g>
</g>
<g>
</g>
<g>
</g>
<g>
</g>
<g>
</g>
<g>
</g>
</svg>
