<?xml version="1.0" encoding="iso-8859-1"?>
<!-- Generator: Adobe Illustrator 19.0.0, SVG Export Plug-In . SVG Version: 6.00 Build 0)  -->
<svg version="1.1" id="Capa_1" xmlns="http://www.w3.org/2000/svg" xmlns:xlink="http://www.w3.org/1999/xlink" x="0px" y="0px"
	 viewBox="0 0 511.999 511.999" style="enable-background:new 0 0 511.999 511.999;" xml:space="preserve">
<path style="fill:#C78489;" d="M223.091,129.49c2.34-18.229-7.175-19.421-27.52-12.523c-0.252,0.095-0.505,0.19-0.757,0.287
	c-19.033,6.452-43.691,26.778-46.043,46.773c-0.203,1.562-0.367,3.166-0.512,4.789c1.511-20.991-11.457-21.681-35.688-2.533
	c-0.293,0.243-0.586,0.486-0.879,0.73c-22.301,18.248-42.035,49.964-37.654,65.613c3.338,25.955,17.354,53.581,38.153,82.023
	c20.669,27.911,48.12,56.639,75.323,72.537c19.509,10.934,40.879,11.082,55.22,11.231c0.083,0,0.165-0.001,0.248-0.002
	c8.258-0.05,16.539-0.088,24.831-0.114C242.624,383.521,211.49,194.956,223.091,129.49z"/>
<path style="fill:#DBA8A5;" d="M361.815,126.724c-3.923-17.581-24.486-24.115-39.207-25.042c-0.198-0.019-0.396-0.036-0.594-0.056
	c-15.106-1.197-28.297-0.742-29.302,15.211c-1.005-15.956-14.196-16.409-29.302-15.211c-0.198,0.018-0.396,0.037-0.594,0.056
	c-14.722,0.928-35.283,7.462-39.207,25.042c-12.999,63.132,18.677,256.484,44.204,271.578c8.293-0.025,16.596-0.038,24.899-0.038
	s16.607,0.012,24.899,0.038C343.138,383.207,374.814,189.854,361.815,126.724z"/>
<path style="fill:#EECDC1;" d="M473.732,167.012c-0.293-0.245-0.586-0.487-0.879-0.731c-24.232-19.149-37.198-18.457-35.688,2.534
	c-0.144-1.623-0.308-3.228-0.512-4.79c-2.352-19.995-27.011-40.32-46.043-46.773c-0.253-0.096-0.505-0.191-0.757-0.286
	c-20.345-6.896-29.861-5.707-27.52,12.523c11.599,65.464-19.534,254.032-44.722,268.811c8.292,0.026,16.573,0.062,24.831,0.114
	c0.083,0.001,0.165,0.002,0.248,0.002c14.341-0.149,35.711-0.296,55.22-11.231c27.203-15.898,54.654-44.625,75.323-72.536
	c20.799-28.442,34.816-56.069,38.153-82.023C515.767,216.977,496.033,185.26,473.732,167.012z"/>
<path style="opacity:0.2;fill:#FEFBE1;enable-background:new    ;" d="M473.732,167.012c-0.293-0.245-0.586-0.487-0.879-0.731
	c-24.232-19.149-37.198-18.457-35.688,2.534c-0.144-1.623-0.308-3.228-0.512-4.79c-2.352-19.995-27.011-40.32-46.043-46.773
	c-0.253-0.096-0.505-0.191-0.757-0.286c-20.303-6.883-29.821-5.708-27.532,12.416c-0.161-0.909-0.328-1.799-0.506-2.66
	c-3.923-17.581-24.486-24.115-39.207-25.042c-0.198-0.019-0.396-0.036-0.594-0.056c-15.106-1.197-28.297-0.742-29.302,15.211
	c-1.005-15.956-14.196-16.409-29.302-15.211c-0.198,0.018-0.396,0.037-0.594,0.056c-14.722,0.928-35.283,7.462-39.207,25.042
	c-0.177,0.862-0.345,1.752-0.506,2.661c2.289-18.126-7.228-19.303-27.531-12.417c-0.252,0.095-0.505,0.19-0.757,0.287
	c-19.033,6.452-43.691,26.778-46.043,46.773c-0.203,1.562-0.367,3.166-0.512,4.789c1.511-20.991-11.457-21.681-35.688-2.533
	c-0.293,0.243-0.586,0.486-0.879,0.73c-10.265,8.399-19.978,19.651-27.054,30.878c15.099,61.016,76.006,109.831,154.709,125.249
	h0.002c17.001,3.33,34.83,5.105,53.208,5.105c18.497,0,36.436-1.8,53.535-5.172h0.002c78.695-15.518,139.538-64.437,154.471-125.531
	C493.507,186.431,483.89,175.324,473.732,167.012z"/>
<circle style="fill:#92BCBC;" cx="261.598" cy="281.803" r="77.396"/>
<path style="fill:#ACCCC7;" d="M184.202,281.806c0,20.122,7.683,38.446,20.269,52.21c8.175,2.937,16.983,4.547,26.168,4.547
	c42.744,0,77.396-34.652,77.396-77.396c0-20.122-7.683-38.446-20.269-52.21c-8.175-2.937-16.983-4.547-26.168-4.547
	C218.853,204.41,184.202,239.062,184.202,281.806z"/>
<ellipse transform="matrix(-0.7071 -0.7071 0.7071 -0.7071 206.4001 592.5182)" style="fill:#E0EDDC;" cx="225.915" cy="253.512" rx="25.798" ry="36.118"/>
<path style="fill:#46475A;" d="M438.323,375.093c1.247-3.369-24.769-10.197-50.655-14.125c-0.341-0.053-0.682-0.105-1.023-0.157
	c-28.08-4.135-40.872-3.974-35.039,0.587l-48.684,49.386c0.083,0,0.165,0,0.248,0c14.274-0.032,35.559-0.064,52.833-2.418
	c23.958-3.423,45.601-9.606,60.643-15.615C431.712,386.627,440.176,380.68,438.323,375.093z"/>
<path style="fill:#535572;" d="M350.091,360.325c-6.338-4.304-34.99-8.68-55.262-10.069c-0.271-0.021-0.542-0.041-0.812-0.062
	c-21.669-1.485-30.922-1.228-24.947,2.695l9.066,57.869c8.275,0.005,16.542,0.013,24.788,0.025
	c23.93-1.29,40.897-11.778,49.682-22.083C361.336,378.19,361.315,367.654,350.091,360.325z"/>
<path style="fill:#AEB2D3;" d="M63.435,361.398c-2.626-4.561-15.719-4.722-36.128-0.587c-0.244,0.053-0.487,0.105-0.732,0.157
	c-18.599,3.928-31.948,10.756-24.453,14.125c8.511,5.588,28.007,11.535,54.43,17.658c26.188,6.009,59.302,12.193,89.608,15.615
	c21.641,2.354,42.986,2.386,57.317,2.418c0.083,0,0.165,0,0.247,0L63.435,361.398z"/>
<path style="fill:#656890;" d="M197.105,350.165c12.225,13.182,53.678,57.877,56.188,60.584c8.281,0,16.566,0.003,24.841,0.008
	c22.447-3.25,15.436-44.874-10.134-58.465c-7.424-3.785-29.236-5.192-44.104-5.391c-0.201-0.004-0.402-0.008-0.604-0.012
	C207.988,346.633,194.923,346.731,197.105,350.165z"/>
<path style="fill:#959BC9;" d="M130.192,352.89c-1.305-3.924-11.035-4.181-29.948-2.695c-0.232,0.021-0.465,0.041-0.698,0.062
	c-17.695,1.389-38.23,5.764-36.584,10.069c2.369,7.329,21.892,17.865,50.12,28.376c27.899,10.305,64.32,20.793,90.642,22.083
	c8.227-0.01,16.478-0.019,24.743-0.025L130.192,352.89z"/>
<path style="fill:#797DAF;" d="M130.157,352.294c-0.361,13.591,69.837,55.215,98.311,58.465c8.266-0.005,16.544-0.008,24.827-0.008
	c-2.512-2.708-43.963-47.402-56.188-60.584c-4.188-3.435-17.436-3.532-32.263-3.274c-0.194,0.004-0.387,0.008-0.582,0.012
	C149.763,347.102,130.559,348.509,130.157,352.294z"/>
<g style="opacity:0.3;">
	<path style="fill:#46475A;" d="M438.323,375.093c1.247-3.369-24.769-10.197-50.655-14.125c-0.341-0.053-0.682-0.105-1.023-0.157
		c-4.012-0.591-7.7-1.091-11.079-1.506c-2.658,4.134-10.056,8.426-20.837,12.807c-15.042,6.009-36.686,12.193-60.643,15.615
		c-17.275,2.354-38.56,2.386-52.833,2.418c-0.08,0-0.162,0-0.243,0c-0.002,0-0.003,0-0.005,0
		c-8.246-0.011-16.513-0.019-24.788-0.025l0,0c-8.276-0.005-16.56-0.008-24.841-0.008l0,0c-8.282,0-16.561,0.003-24.826,0.008
		c-8.265,0.005-16.517,0.013-24.743,0.025c-0.083,0-0.164,0-0.247,0c-14.333-0.032-35.676-0.064-57.317-2.418
		c-28.235-3.189-58.901-8.775-84.14-14.382c0.233,0.647,0.883,1.237,2.018,1.748c8.511,5.588,28.007,11.535,54.43,17.658
		c26.188,6.009,59.302,12.193,89.608,15.615c21.641,2.354,42.986,2.386,57.317,2.418c0.083,0,0.165,0,0.247,0
		c8.227-0.01,16.478-0.019,24.743-0.025c8.266-0.005,16.544-0.008,24.827-0.008l0,0c8.281,0,16.566,0.003,24.841,0.008l0,0
		c8.275,0.005,16.542,0.013,24.788,0.025c0.002,0,0.003,0,0.005,0c0.08,0,0.162,0,0.242,0c14.274-0.032,35.559-0.064,52.833-2.418
		c23.958-3.423,45.601-9.606,60.643-15.615C431.712,386.627,440.176,380.68,438.323,375.093z"/>
</g>
<g>
</g>
<g>
</g>
<g>
</g>
<g>
</g>
<g>
</g>
<g>
</g>
<g>
</g>
<g>
</g>
<g>
</g>
<g>
</g>
<g>
</g>
<g>
</g>
<g>
</g>
<g>
</g>
<g>
</g>
</svg>
