<?xml version="1.0" encoding="iso-8859-1"?>
<!-- Generator: Adobe Illustrator 19.0.0, SVG Export Plug-In . SVG Version: 6.00 Build 0)  -->
<svg version="1.1" id="Capa_1" xmlns="http://www.w3.org/2000/svg" xmlns:xlink="http://www.w3.org/1999/xlink" x="0px" y="0px"
	 viewBox="0 0 512 512" style="enable-background:new 0 0 512 512;" xml:space="preserve">
<g>
	<g>
		<g>
			<path d="M483.028,365.321H321.185c-17.161,17.525-40.656,27.402-65.184,27.402s-48.023-9.877-65.184-27.402H27.43
				c-10.082,0.015-18.256,8.177-18.286,18.259c0,0.194,0.051,0.373,0.057,0.565c0.001,0.056,0.032,0.103,0.032,0.158v0.098
				l-0.004,0.02c0.448,9.73,8.46,17.393,18.2,17.409l10.571,0.813c145.103,11.571,290.897,11.571,436,0l9.844-0.786
				c5.091,0.132,10.018-1.811,13.647-5.384c3.756-3.75,5.697-8.947,5.317-14.241C501.517,372.362,492.979,365.063,483.028,365.321z"
				/>
			<path d="M475.457,420.875c-72.799,5.813-146.143,8.723-219.455,8.723c-73.33,0-146.638-2.911-219.455-8.723l-9.844-0.786h-0.049
				c-2.682-0.024-5.352-0.363-7.954-1.011c14.451,26.196,44.577,48.973,84.781,65.426c-1.772-5.749-2.75-11.714-2.906-17.728
				c-0.007-5.049,4.08-9.149,9.13-9.156c5.049-0.007,9.149,4.08,9.156,9.129c-0.123,8.805,3.094,17.33,9.004,23.857
				c1.128,0.942,2.007,2.148,2.556,3.511c21.872,6.644,44.275,11.395,66.961,14.201c-3.472-7.629-5.304-15.902-5.379-24.283
				c0-5.049,4.093-9.143,9.143-9.143c5.049,0,9.143,4.093,9.143,9.143c0,0.205,0.326,23.473,14.821,26.598
				c0.301,0.112,0.596,0.24,0.882,0.385c9.846,0.623,19.847,0.981,30.011,0.981c10.164,0,20.165-0.358,30.011-0.981
				c0.287-0.145,0.581-0.273,0.882-0.385c14.42-3.107,14.821-26.366,14.821-26.598c0-5.049,4.093-9.143,9.143-9.143
				c5.049,0,9.143,4.093,9.143,9.143c-0.075,8.382-1.907,16.654-5.379,24.283c22.686-2.806,45.089-7.557,66.961-14.201
				c0.55-1.363,1.428-2.569,2.556-3.511c5.91-6.528,9.128-15.052,9.005-23.857c0.034-5.028,4.115-9.089,9.143-9.098h0.031
				c5.033,0.01,9.109,4.091,9.112,9.125c-0.157,6.014-1.135,11.979-2.907,17.728c40.285-16.485,70.451-39.321,84.868-65.586
				c-2.88,0.758-5.841,1.16-8.818,1.198L475.457,420.875z"/>
			<path d="M256.002,374.437c40.338-0.047,73.005-32.778,72.973-73.116c-0.032-40.338-32.751-73.017-73.089-73
				s-73.029,32.724-73.027,73.063C182.928,341.736,215.649,374.417,256.002,374.437z M201.145,301.384
				c0.046-30.27,24.587-54.791,54.857-54.813c5.049,0,9.143,4.093,9.143,9.143s-4.093,9.143-9.143,9.143
				c-20.176,0.01-36.537,16.351-36.571,36.527c0,5.049-4.093,9.143-9.143,9.143C205.238,310.526,201.145,306.433,201.145,301.384z"
				/>
			<path d="M510.194,265.92c-3.27-8.277-10.05-14.672-18.503-17.453c-6.029,6.709-13.181,12.316-21.135,16.569
				c-4.468,2.357-10,0.646-12.357-3.821s-0.646-10,3.821-12.357c18.891-9.955,30.956-29.314,31.57-50.659
				c-1.211-28.607-21.302-52.917-49.168-59.497c-2.199,7.518-5.412,14.701-9.549,21.351c-1.675,2.674-4.608,4.297-7.763,4.295
				c-1.711,0.002-3.387-0.481-4.835-1.393c-4.282-2.675-5.586-8.315-2.911-12.598c6.398-10.313,9.926-22.147,10.218-34.28
				c-1.463-39.276-33.705-70.375-73.009-70.417c-2.312,0-4.572,0.205-6.83,0.413c4.495,11.511,6.811,23.757,6.83,36.114
				c0,5.049-4.093,9.143-9.143,9.143s-9.143-4.093-9.143-9.143c0.083-16.913-5.17-33.421-15.013-47.175
				c-0.698-0.991-1.438-1.95-2.178-2.907c-1.272-1.653-2.615-3.237-4-4.778c-0.86-0.954-1.69-1.936-2.593-2.849
				c-2.046-2.074-4.201-4.039-6.456-5.884c-1.013-0.829-2.094-1.571-3.145-2.351c-1.58-1.17-3.185-2.3-4.844-3.352
				c-1.113-0.709-2.237-1.401-3.385-2.056c-2.129-1.211-4.311-2.324-6.545-3.34c-0.671-0.307-1.31-0.67-1.99-0.959
				c-2.953-1.237-5.975-2.3-9.051-3.184c-0.91-0.266-1.842-0.476-2.764-0.711c-2.41-0.613-4.853-1.117-7.328-1.513
				c-0.952-0.152-1.898-0.319-2.86-0.437c-6.725-0.92-13.543-0.92-20.268,0c-0.963,0.118-1.909,0.285-2.861,0.437
				c-2.475,0.395-4.917,0.899-7.328,1.513c-0.922,0.236-1.854,0.445-2.764,0.711c-3.077,0.884-6.099,1.947-9.051,3.184
				c-0.68,0.29-1.32,0.652-1.991,0.959c-2.233,1.017-4.414,2.131-6.545,3.34c-1.148,0.655-2.272,1.347-3.385,2.056
				c-1.659,1.052-3.264,2.182-4.844,3.352c-1.051,0.78-2.132,1.522-3.145,2.351c-2.255,1.845-4.41,3.809-6.456,5.884
				c-0.903,0.913-1.733,1.895-2.593,2.849c-1.385,1.541-2.728,3.125-4,4.778c-0.741,0.958-1.48,1.916-2.178,2.907
				c-9.842,13.754-15.095,30.262-15.011,47.175c0,5.049-4.093,9.143-9.143,9.143c-5.049,0-9.143-4.093-9.143-9.143
				c0.019-12.357,2.335-24.603,6.83-36.114c-2.258-0.208-4.518-0.413-6.83-0.413c-39.304,0.042-71.547,31.141-73.009,70.417
				c0.293,12.132,3.821,23.967,10.219,34.279c2.675,4.283,1.372,9.923-2.911,12.598c-1.447,0.912-3.124,1.395-4.835,1.393
				c-3.155,0.002-6.089-1.621-7.763-4.295c-4.137-6.651-7.35-13.834-9.549-21.351c-27.867,6.579-47.957,30.89-49.168,59.497
				c0.614,21.345,12.678,40.704,31.57,50.658c4.468,2.357,6.179,7.89,3.821,12.357c-2.357,4.468-7.89,6.178-12.357,3.821
				c-7.953-4.254-15.105-9.86-21.135-16.568c-8.476,2.794-15.267,9.217-18.53,17.523c-2.661,7.156-2.328,15.083,0.924,21.991
				c3.413,7.261,9.609,12.839,17.187,15.473l109.575,43.58h47.462c-22.304-38.42-13.764-87.312,20.245-115.895
				c34.009-28.583,83.641-28.583,117.65,0c34.009,28.583,42.549,77.475,20.245,115.895h47.461l109.268-43.464
				c7.702-2.614,14.014-8.239,17.496-15.589C512.555,281.048,512.878,273.094,510.194,265.92z"/>
		</g>
	</g>
</g>
<g>
</g>
<g>
</g>
<g>
</g>
<g>
</g>
<g>
</g>
<g>
</g>
<g>
</g>
<g>
</g>
<g>
</g>
<g>
</g>
<g>
</g>
<g>
</g>
<g>
</g>
<g>
</g>
<g>
</g>
</svg>
